mtllib cube.mtl
v 0 0 0
v 100 0 0
v 0 100 0
v 0 150 0
v 100 150 0
v 0 250 0
v 0 300 0
v 100 300 0
v 0 400 0
v 0 450 0
v 100 450 0
v 0 550 0
v 0 600 0
v 100 600 0
v 0 700 0
v 150 0 0
v 250 0 0
v 150 100 0
v 150 150 0
v 250 150 0
v 150 250 0
v 150 300 0
v 250 300 0
v 150 400 0
v 150 450 0
v 250 450 0
v 150 550 0
v 150 600 0
v 250 600 0
v 150 700 0
v 300 0 0
v 400 0 0
v 300 100 0
v 300 150 0
v 400 150 0
v 300 250 0
v 300 300 0
v 400 300 0
v 300 400 0
v 300 450 0
v 400 450 0
v 300 550 0
v 300 600 0
v 400 600 0
v 300 700 0
v 450 0 0
v 550 0 0
v 450 100 0
v 450 150 0
v 550 150 0
v 450 250 0
v 450 300 0
v 550 300 0
v 450 400 0
v 450 450 0
v 550 450 0
v 450 550 0
v 450 600 0
v 550 600 0
v 450 700 0
v 600 0 0
v 700 0 0
v 600 100 0
v 600 150 0
v 700 150 0
v 600 250 0
v 600 300 0
v 700 300 0
v 600 400 0
v 600 450 0
v 700 450 0
v 600 550 0
v 600 600 0
v 700 600 0
v 600 700 0
vn 0 0 1
vn 0 0 1
vn 0 0 1
vn 0 0 1
vn 0 0 1
vn 0 0 1
vn 0 0 1
vn 0 0 1
vn 0 0 1
vn 0 0 1
vn 0 0 1
vn 0 0 1
vn 0 0 1
vn 0 0 1
vn 0 0 1
vn 0 0 1
vn 0 0 1
vn 0 0 1
vn 0 0 1
vn 0 0 1
vn 0 0 1
vn 0 0 1
vn 0 0 1
vn 0 0 1
vn 0 0 1
usemtl White
f 1//1 2//1 3//1
f 4//2 5//2 6//2
f 7//3 8//3 9//3
f 10//4 11//4 12//4
f 13//5 14//5 15//5
f 16//6 17//6 18//6
f 19//7 20//7 21//7
f 22//8 23//8 24//8
f 25//9 26//9 27//9
f 28//10 29//10 30//10
f 31//11 32//11 33//11
f 34//12 35//12 36//12
f 37//13 38//13 39//13
f 40//14 41//14 42//14
f 43//15 44//15 45//15
f 46//16 47//16 48//16
f 49//17 50//17 51//17
f 52//18 53//18 54//18
f 55//19 56//19 57//19
f 58//20 59//20 60//20
f 61//21 62//21 63//21
f 64//22 65//22 66//22
f 67//23 68//23 69//23
f 70//24 71//24 72//24
f 73//25 74//25 75//25
